<?xml version="1.0" encoding="UTF-8"?><svg id="a" xmlns="http://www.w3.org/2000/svg" viewBox="0 0 16.3 9.9"
	 style="enable-background:new 0 0 16.3 9.9;" ><path d="M0.9,0v8.8h14.5V0L0.9,0L0.9,0z M1.7,0.7h13v7.3h-13V0.7z M0,9v0.5l0.5,0.3 h15.4l0.5-0.3V9H0z"/><g><path d="M6.8,3"/></g><path d="M5,4h6.3c0.2,0,0.3-0.2,0.3-0.3v0c0-0.2-0.2-0.3-0.3-0.3H5c-0.2,0-0.3,0.2-0.3,0.3v0C4.7,3.8,4.8,4,5,4z"/><path d="M5.5,5.1h5.2c0.2,0,0.3-0.1,0.3-0.3V4.7c0-0.2-0.1-0.3-0.3-0.3H5.5c-0.2,0-0.3,0.1-0.3,0.3v0.1C5.2,4.9,5.4,5.1,5.5,5.1z"/></svg>
