<?xml version="1.0" encoding="UTF-8"?><svg id="a" xmlns="http://www.w3.org/2000/svg" viewBox="0 0 512 512"><defs><style>.b{fill:#47e322;}.c{fill:#e5f3e7;}.d{fill:#f7fcf8;}.e{fill:#5ef62d;}.f{fill:#247212;}</style></defs><path class="b" d="m454,256c0,109.35-88.65,198-198,198S58,365.35,58,256,146.65,58,256,58c1.87,0,3.98,0,6.46.1,77.38,3.25,191.54,75.81,191.54,197.9Z"/><path class="e" d="m196.17,203.29c-2.62,1.72-5.35,3.3-8.17,4.71-58.87,29.44-127.91,60.51-128.99,60.99h-.01c0-69.46,22.53-124.78,62.27-161.32-5.3,5.2-10.39,10.75-15.27,16.33,38.54,23.46,68.31,50.43,90.17,79.29Z"/><path class="e" d="m262,58s-13.73,67.41-26.44,96.72c-19.16-23.25-45.14-48.77-79.56-71.72-.34.14-.67.27-1.01.42,29.97-16.58,66.07-25.42,107.01-25.42Z"/><path class="d" d="m235.56,154.72c-.18.44-.37.86-.56,1.28-7.85,17.43-21.01,35.63-38.83,47.29-21.86-28.86-51.63-55.83-90.17-79.29,4.88-5.58,9.97-11.13,15.27-16.33,10.15-9.34,21.41-17.45,33.72-24.25.34-.15.67-.28,1.01-.42,34.42,22.95,60.4,48.47,79.56,71.72Z"/><path class="f" d="m420,150c-103,76-109,173-104,294l-4,1s-47-205,107-298l1,3Z"/><path class="c" d="m312,445c-25,12-70,8-70,8,0,0,5.7-54.53,2-123-2.32-43-17.48-86.68-47.83-126.71,17.82-11.66,30.98-29.86,38.83-47.29.19-.42.38-.84.56-1.28,33.94,41.2,46.44,75.28,46.44,75.28,0,0,24-74,97-124,16,12,29,25,40,41-123,75-108,251-107,298Z"/></svg>